<svg id="visual" viewBox="0 0 900 600" width="900" height="600" xmlns="http://www.w3.org/2000/svg" xmlns:xlink="http://www.w3.org/1999/xlink" version="1.1"><path d="M0 99L50 95.8C100 92.7 200 86.3 300 81C400 75.7 500 71.3 600 67.2C700 63 800 59 850 57L900 55L900 0L850 0C800 0 700 0 600 0C500 0 400 0 300 0C200 0 100 0 50 0L0 0Z" fill="#fafafa"></path><path d="M0 38L50 35.2C100 32.3 200 26.7 300 27.7C400 28.7 500 36.3 600 42.7C700 49 800 54 850 56.5L900 59L900 0L850 0C800 0 700 0 600 0C500 0 400 0 300 0C200 0 100 0 50 0L0 0Z" fill="#e7e7e7"></path></svg>